<mxfile host="app.diagrams.net" modified="2022-03-28T12:26:20.843Z" agent="5.0 (Windows NT 10.0; Win64; x64) AppleWebKit/537.36 (KHTML, like Gecko) Chrome/99.0.4844.82 Safari/537.36" etag="3wJ5zRHBc3LdO289hxfz" version="17.2.4" type="github">
  <diagram id="-ynK3dG4SO02AhNLkPNo" name="Page-1">
    <mxGraphModel dx="2031" dy="2258" grid="1" gridSize="10" guides="1" tooltips="1" connect="1" arrows="1" fold="1" page="1" pageScale="1" pageWidth="827" pageHeight="1169" math="0" shadow="0">
      <root>
        <mxCell id="0" />
        <mxCell id="1" parent="0" />
        <mxCell id="Zvi5rRcZ6YTApQut40Sa-1" value="User" style="sketch=0;outlineConnect=0;fontColor=#232F3E;gradientColor=none;fillColor=#232F3D;strokeColor=none;dashed=0;verticalLabelPosition=bottom;verticalAlign=top;align=center;html=1;fontSize=12;fontStyle=0;aspect=fixed;pointerEvents=1;shape=mxgraph.aws4.user;" parent="1" vertex="1">
          <mxGeometry x="443.5" y="-20" width="78" height="78" as="geometry" />
        </mxCell>
        <mxCell id="Zvi5rRcZ6YTApQut40Sa-3" value="Azure Cloud" style="whiteSpace=wrap;html=1;aspect=fixed;verticalAlign=top;" parent="1" vertex="1">
          <mxGeometry x="70" y="100" width="837.5" height="837.5" as="geometry" />
        </mxCell>
        <mxCell id="Zvi5rRcZ6YTApQut40Sa-6" value="Application Gateway(Load Balancer)" style="verticalLabelPosition=bottom;html=1;verticalAlign=top;align=center;strokeColor=none;fillColor=#00BEF2;shape=mxgraph.azure.azure_load_balancer;" parent="1" vertex="1">
          <mxGeometry x="457.5" y="130" width="50" height="35" as="geometry" />
        </mxCell>
        <mxCell id="Zvi5rRcZ6YTApQut40Sa-8" value="Azure AKS(Kubernetes)" style="rounded=0;whiteSpace=wrap;html=1;labelBackgroundColor=none;verticalAlign=top;" parent="1" vertex="1">
          <mxGeometry x="120" y="200" width="730" height="560" as="geometry" />
        </mxCell>
        <mxCell id="DPjsktOoGeMWFbLANR4H-5" value="Kubernetes namespace(dev)" style="rounded=0;whiteSpace=wrap;html=1;labelBackgroundColor=none;verticalAlign=top;" vertex="1" parent="1">
          <mxGeometry x="160" y="230" width="535" height="305" as="geometry" />
        </mxCell>
        <mxCell id="DPjsktOoGeMWFbLANR4H-4" value="Kubernetes namespace(qa)" style="rounded=0;whiteSpace=wrap;html=1;labelBackgroundColor=none;verticalAlign=top;" vertex="1" parent="1">
          <mxGeometry x="180" y="257.5" width="535" height="305" as="geometry" />
        </mxCell>
        <mxCell id="DPjsktOoGeMWFbLANR4H-2" value="Kubernetes namespace(qa)" style="rounded=0;whiteSpace=wrap;html=1;labelBackgroundColor=none;verticalAlign=top;" vertex="1" parent="1">
          <mxGeometry x="200" y="285" width="535" height="305" as="geometry" />
        </mxCell>
        <mxCell id="Zvi5rRcZ6YTApQut40Sa-11" value="Kubernetes namespace(release)" style="rounded=0;whiteSpace=wrap;html=1;labelBackgroundColor=none;verticalAlign=top;" parent="1" vertex="1">
          <mxGeometry x="217.5" y="307.5" width="535" height="305" as="geometry" />
        </mxCell>
        <mxCell id="Zvi5rRcZ6YTApQut40Sa-12" value="" style="endArrow=classic;startArrow=classic;html=1;rounded=0;exitX=0.5;exitY=0;exitDx=0;exitDy=0;exitPerimeter=0;" parent="1" source="Zvi5rRcZ6YTApQut40Sa-6" target="Zvi5rRcZ6YTApQut40Sa-1" edge="1">
          <mxGeometry width="50" height="50" relative="1" as="geometry">
            <mxPoint x="415" y="148" as="sourcePoint" />
            <mxPoint x="465" y="98" as="targetPoint" />
          </mxGeometry>
        </mxCell>
        <mxCell id="Zvi5rRcZ6YTApQut40Sa-14" value="" style="endArrow=classic;startArrow=classic;html=1;rounded=0;" parent="1" target="Zvi5rRcZ6YTApQut40Sa-6" edge="1">
          <mxGeometry width="50" height="50" relative="1" as="geometry">
            <mxPoint x="483" y="200" as="sourcePoint" />
            <mxPoint x="315" y="100" as="targetPoint" />
          </mxGeometry>
        </mxCell>
        <mxCell id="Zvi5rRcZ6YTApQut40Sa-15" value="Insurer Interface" style="rounded=0;whiteSpace=wrap;html=1;labelBackgroundColor=none;verticalAlign=middle;" parent="1" vertex="1">
          <mxGeometry x="235" y="340" width="90" height="40" as="geometry" />
        </mxCell>
        <mxCell id="Zvi5rRcZ6YTApQut40Sa-16" value="Leadwise" style="rounded=0;whiteSpace=wrap;html=1;labelBackgroundColor=none;verticalAlign=middle;" parent="1" vertex="1">
          <mxGeometry x="235" y="390" width="90" height="40" as="geometry" />
        </mxCell>
        <mxCell id="Zvi5rRcZ6YTApQut40Sa-17" value="Credit Guard Token Interface" style="rounded=0;whiteSpace=wrap;html=1;labelBackgroundColor=none;verticalAlign=middle;" parent="1" vertex="1">
          <mxGeometry x="235" y="440" width="90" height="40" as="geometry" />
        </mxCell>
        <mxCell id="Zvi5rRcZ6YTApQut40Sa-18" value="Cars Interface" style="rounded=0;whiteSpace=wrap;html=1;labelBackgroundColor=none;verticalAlign=middle;" parent="1" vertex="1">
          <mxGeometry x="336" y="440" width="90" height="40" as="geometry" />
        </mxCell>
        <mxCell id="Zvi5rRcZ6YTApQut40Sa-19" value="Telematics Interface" style="rounded=0;whiteSpace=wrap;html=1;labelBackgroundColor=none;verticalAlign=middle;" parent="1" vertex="1">
          <mxGeometry x="336" y="340" width="90" height="40" as="geometry" />
        </mxCell>
        <mxCell id="Zvi5rRcZ6YTApQut40Sa-20" value="Policy Manager" style="rounded=0;whiteSpace=wrap;html=1;labelBackgroundColor=none;verticalAlign=middle;" parent="1" vertex="1">
          <mxGeometry x="336" y="390" width="90" height="40" as="geometry" />
        </mxCell>
        <mxCell id="Zvi5rRcZ6YTApQut40Sa-21" value="Rule Engine" style="rounded=0;whiteSpace=wrap;html=1;labelBackgroundColor=none;verticalAlign=middle;" parent="1" vertex="1">
          <mxGeometry x="440" y="390" width="90" height="40" as="geometry" />
        </mxCell>
        <mxCell id="Zvi5rRcZ6YTApQut40Sa-22" value="ob" style="rounded=0;whiteSpace=wrap;html=1;labelBackgroundColor=none;verticalAlign=middle;" parent="1" vertex="1">
          <mxGeometry x="440" y="440" width="90" height="40" as="geometry" />
        </mxCell>
        <mxCell id="Zvi5rRcZ6YTApQut40Sa-23" value="Policy Manager New" style="rounded=0;whiteSpace=wrap;html=1;labelBackgroundColor=none;verticalAlign=middle;" parent="1" vertex="1">
          <mxGeometry x="440" y="340" width="90" height="40" as="geometry" />
        </mxCell>
        <mxCell id="Zvi5rRcZ6YTApQut40Sa-24" value="Notification Service" style="rounded=0;whiteSpace=wrap;html=1;labelBackgroundColor=none;verticalAlign=middle;" parent="1" vertex="1">
          <mxGeometry x="545" y="340" width="90" height="40" as="geometry" />
        </mxCell>
        <mxCell id="Zvi5rRcZ6YTApQut40Sa-25" value="Drives Interface" style="rounded=0;whiteSpace=wrap;html=1;labelBackgroundColor=none;verticalAlign=middle;" parent="1" vertex="1">
          <mxGeometry x="545" y="390" width="90" height="40" as="geometry" />
        </mxCell>
        <mxCell id="Zvi5rRcZ6YTApQut40Sa-26" value="bo-new" style="rounded=0;whiteSpace=wrap;html=1;labelBackgroundColor=none;verticalAlign=middle;" parent="1" vertex="1">
          <mxGeometry x="545" y="440" width="90" height="40" as="geometry" />
        </mxCell>
        <mxCell id="Zvi5rRcZ6YTApQut40Sa-28" value="Credit Guard URL Interface" style="rounded=0;whiteSpace=wrap;html=1;labelBackgroundColor=none;verticalAlign=middle;" parent="1" vertex="1">
          <mxGeometry x="235" y="490" width="90" height="40" as="geometry" />
        </mxCell>
        <mxCell id="Zvi5rRcZ6YTApQut40Sa-29" value="Cars Manager" style="rounded=0;whiteSpace=wrap;html=1;labelBackgroundColor=none;verticalAlign=middle;" parent="1" vertex="1">
          <mxGeometry x="336" y="490" width="90" height="40" as="geometry" />
        </mxCell>
        <mxCell id="Zvi5rRcZ6YTApQut40Sa-30" value="Telematics Ituran API" style="rounded=0;whiteSpace=wrap;html=1;labelBackgroundColor=none;verticalAlign=middle;" parent="1" vertex="1">
          <mxGeometry x="440" y="490" width="90" height="40" as="geometry" />
        </mxCell>
        <mxCell id="Zvi5rRcZ6YTApQut40Sa-32" value="Telematics Traffilog API" style="rounded=0;whiteSpace=wrap;html=1;labelBackgroundColor=none;verticalAlign=middle;" parent="1" vertex="1">
          <mxGeometry x="545" y="490" width="90" height="40" as="geometry" />
        </mxCell>
        <mxCell id="Zvi5rRcZ6YTApQut40Sa-33" value="AAA" style="rounded=0;whiteSpace=wrap;html=1;labelBackgroundColor=none;verticalAlign=middle;" parent="1" vertex="1">
          <mxGeometry x="645" y="340" width="90" height="40" as="geometry" />
        </mxCell>
        <mxCell id="Zvi5rRcZ6YTApQut40Sa-34" value="Drives Manager" style="rounded=0;whiteSpace=wrap;html=1;labelBackgroundColor=none;verticalAlign=middle;" parent="1" vertex="1">
          <mxGeometry x="645" y="390" width="90" height="40" as="geometry" />
        </mxCell>
        <mxCell id="Zvi5rRcZ6YTApQut40Sa-35" value="ob-tesle" style="rounded=0;whiteSpace=wrap;html=1;labelBackgroundColor=none;verticalAlign=middle;" parent="1" vertex="1">
          <mxGeometry x="645" y="440" width="90" height="40" as="geometry" />
        </mxCell>
        <mxCell id="Zvi5rRcZ6YTApQut40Sa-36" value="Notification Service" style="rounded=0;whiteSpace=wrap;html=1;labelBackgroundColor=none;verticalAlign=middle;" parent="1" vertex="1">
          <mxGeometry x="645" y="490" width="90" height="40" as="geometry" />
        </mxCell>
        <mxCell id="Zvi5rRcZ6YTApQut40Sa-37" value="UBI Manager" style="rounded=0;whiteSpace=wrap;html=1;labelBackgroundColor=none;verticalAlign=middle;" parent="1" vertex="1">
          <mxGeometry x="235" y="545" width="90" height="40" as="geometry" />
        </mxCell>
        <mxCell id="Zvi5rRcZ6YTApQut40Sa-38" value="FNX" style="ellipse;shape=cloud;whiteSpace=wrap;html=1;labelBackgroundColor=none;verticalAlign=middle;" parent="1" vertex="1">
          <mxGeometry x="970" y="610" width="120" height="80" as="geometry" />
        </mxCell>
        <mxCell id="Zvi5rRcZ6YTApQut40Sa-39" value="Credit Guard" style="ellipse;shape=cloud;whiteSpace=wrap;html=1;labelBackgroundColor=none;verticalAlign=middle;" parent="1" vertex="1">
          <mxGeometry x="970" y="510" width="120" height="80" as="geometry" />
        </mxCell>
        <mxCell id="Zvi5rRcZ6YTApQut40Sa-44" value="NAT&lt;br&gt;" style="aspect=fixed;html=1;points=[];align=center;image;fontSize=12;image=img/lib/azure2/networking/NAT.svg;labelBackgroundColor=none;" parent="1" vertex="1">
          <mxGeometry x="449.5" y="640" width="68" height="68" as="geometry" />
        </mxCell>
        <mxCell id="Zvi5rRcZ6YTApQut40Sa-45" value="" style="endArrow=classic;html=1;rounded=0;" parent="1" source="Zvi5rRcZ6YTApQut40Sa-11" target="Zvi5rRcZ6YTApQut40Sa-44" edge="1">
          <mxGeometry width="50" height="50" relative="1" as="geometry">
            <mxPoint x="520" y="530" as="sourcePoint" />
            <mxPoint x="570" y="480" as="targetPoint" />
          </mxGeometry>
        </mxCell>
        <mxCell id="Zvi5rRcZ6YTApQut40Sa-46" value="" style="endArrow=classic;html=1;rounded=0;entryX=0.16;entryY=0.55;entryDx=0;entryDy=0;entryPerimeter=0;" parent="1" source="Zvi5rRcZ6YTApQut40Sa-44" target="Zvi5rRcZ6YTApQut40Sa-39" edge="1">
          <mxGeometry width="50" height="50" relative="1" as="geometry">
            <mxPoint x="520" y="530" as="sourcePoint" />
            <mxPoint x="570" y="480" as="targetPoint" />
          </mxGeometry>
        </mxCell>
        <mxCell id="Zvi5rRcZ6YTApQut40Sa-47" value="" style="endArrow=classic;html=1;rounded=0;entryX=0.16;entryY=0.55;entryDx=0;entryDy=0;entryPerimeter=0;" parent="1" source="Zvi5rRcZ6YTApQut40Sa-44" target="Zvi5rRcZ6YTApQut40Sa-38" edge="1">
          <mxGeometry width="50" height="50" relative="1" as="geometry">
            <mxPoint x="520" y="530" as="sourcePoint" />
            <mxPoint x="1010" y="500" as="targetPoint" />
          </mxGeometry>
        </mxCell>
        <mxCell id="Zvi5rRcZ6YTApQut40Sa-48" value="Notification Service DB" style="shape=cylinder3;whiteSpace=wrap;html=1;boundedLbl=1;backgroundOutline=1;size=15;labelBackgroundColor=none;verticalAlign=middle;" parent="1" vertex="1">
          <mxGeometry x="380" y="810" width="60" height="80" as="geometry" />
        </mxCell>
        <mxCell id="Zvi5rRcZ6YTApQut40Sa-49" value="Policy Manager DB" style="shape=cylinder3;whiteSpace=wrap;html=1;boundedLbl=1;backgroundOutline=1;size=15;labelBackgroundColor=none;verticalAlign=middle;" parent="1" vertex="1">
          <mxGeometry x="457.5" y="810" width="60" height="80" as="geometry" />
        </mxCell>
        <mxCell id="Zvi5rRcZ6YTApQut40Sa-50" value="Cars DB" style="shape=cylinder3;whiteSpace=wrap;html=1;boundedLbl=1;backgroundOutline=1;size=15;labelBackgroundColor=none;verticalAlign=middle;" parent="1" vertex="1">
          <mxGeometry x="540" y="810" width="60" height="80" as="geometry" />
        </mxCell>
        <mxCell id="Zvi5rRcZ6YTApQut40Sa-51" value="Cosmos DB" style="shape=cylinder3;whiteSpace=wrap;html=1;boundedLbl=1;backgroundOutline=1;size=15;labelBackgroundColor=none;verticalAlign=middle;" parent="1" vertex="1">
          <mxGeometry x="620" y="810" width="60" height="80" as="geometry" />
        </mxCell>
        <mxCell id="Zvi5rRcZ6YTApQut40Sa-52" value="BLOB RE Rules" style="rounded=1;whiteSpace=wrap;html=1;labelBackgroundColor=none;verticalAlign=middle;" parent="1" vertex="1">
          <mxGeometry x="707" y="820" width="120" height="60" as="geometry" />
        </mxCell>
        <mxCell id="Zvi5rRcZ6YTApQut40Sa-53" value="Kubernetes API" style="sketch=0;html=1;dashed=0;whitespace=wrap;fillColor=#2875E2;strokeColor=#ffffff;points=[[0.005,0.63,0],[0.1,0.2,0],[0.9,0.2,0],[0.5,0,0],[0.995,0.63,0],[0.72,0.99,0],[0.5,1,0],[0.28,0.99,0]];shape=mxgraph.kubernetes.icon;prIcon=api;labelBackgroundColor=none;verticalAlign=bottom;" parent="1" vertex="1">
          <mxGeometry x="215" y="680" width="50" height="48" as="geometry" />
        </mxCell>
        <mxCell id="Zvi5rRcZ6YTApQut40Sa-54" value="" style="endArrow=classic;html=1;rounded=0;entryX=0.5;entryY=0;entryDx=0;entryDy=0;entryPerimeter=0;" parent="1" source="Zvi5rRcZ6YTApQut40Sa-44" target="Zvi5rRcZ6YTApQut40Sa-48" edge="1">
          <mxGeometry width="50" height="50" relative="1" as="geometry">
            <mxPoint x="460" y="800" as="sourcePoint" />
            <mxPoint x="510" y="750" as="targetPoint" />
          </mxGeometry>
        </mxCell>
        <mxCell id="Zvi5rRcZ6YTApQut40Sa-56" value="" style="endArrow=classic;html=1;rounded=0;" parent="1" source="Zvi5rRcZ6YTApQut40Sa-44" target="Zvi5rRcZ6YTApQut40Sa-49" edge="1">
          <mxGeometry width="50" height="50" relative="1" as="geometry">
            <mxPoint x="150" y="870" as="sourcePoint" />
            <mxPoint x="200" y="820" as="targetPoint" />
          </mxGeometry>
        </mxCell>
        <mxCell id="Zvi5rRcZ6YTApQut40Sa-57" value="" style="endArrow=classic;html=1;rounded=0;" parent="1" source="Zvi5rRcZ6YTApQut40Sa-44" target="Zvi5rRcZ6YTApQut40Sa-50" edge="1">
          <mxGeometry width="50" height="50" relative="1" as="geometry">
            <mxPoint x="493.58974358974365" y="737.9999999999998" as="sourcePoint" />
            <mxPoint x="496.21794871794873" y="820" as="targetPoint" />
          </mxGeometry>
        </mxCell>
        <mxCell id="Zvi5rRcZ6YTApQut40Sa-58" value="" style="endArrow=classic;html=1;rounded=0;entryX=0.5;entryY=0;entryDx=0;entryDy=0;entryPerimeter=0;" parent="1" source="Zvi5rRcZ6YTApQut40Sa-44" target="Zvi5rRcZ6YTApQut40Sa-51" edge="1">
          <mxGeometry width="50" height="50" relative="1" as="geometry">
            <mxPoint x="503.58974358974365" y="747.9999999999998" as="sourcePoint" />
            <mxPoint x="506.21794871794873" y="830" as="targetPoint" />
          </mxGeometry>
        </mxCell>
        <mxCell id="Zvi5rRcZ6YTApQut40Sa-59" value="" style="endArrow=classic;html=1;rounded=0;entryX=0.5;entryY=0;entryDx=0;entryDy=0;" parent="1" source="Zvi5rRcZ6YTApQut40Sa-44" target="Zvi5rRcZ6YTApQut40Sa-52" edge="1">
          <mxGeometry width="50" height="50" relative="1" as="geometry">
            <mxPoint x="513.5897435897436" y="757.9999999999998" as="sourcePoint" />
            <mxPoint x="516.2179487179487" y="840" as="targetPoint" />
          </mxGeometry>
        </mxCell>
        <mxCell id="Zvi5rRcZ6YTApQut40Sa-60" value="Jenkins Virtual Machine" style="shape=image;html=1;verticalAlign=top;verticalLabelPosition=bottom;labelBackgroundColor=#ffffff;imageAspect=0;aspect=fixed;image=https://cdn0.iconfinder.com/data/icons/font-awesome-brands-vol-1/512/jenkins-128.png" parent="1" vertex="1">
          <mxGeometry x="107" y="782" width="108" height="108" as="geometry" />
        </mxCell>
        <mxCell id="Zvi5rRcZ6YTApQut40Sa-61" value="" style="endArrow=classic;html=1;rounded=0;entryX=0.499;entryY=0.721;entryDx=0;entryDy=0;entryPerimeter=0;" parent="1" source="Zvi5rRcZ6YTApQut40Sa-60" target="Zvi5rRcZ6YTApQut40Sa-53" edge="1">
          <mxGeometry width="50" height="50" relative="1" as="geometry">
            <mxPoint x="240" y="820" as="sourcePoint" />
            <mxPoint x="290" y="770" as="targetPoint" />
          </mxGeometry>
        </mxCell>
        <mxCell id="Zvi5rRcZ6YTApQut40Sa-62" value="" style="endArrow=classic;html=1;rounded=0;exitX=0.781;exitY=0.377;exitDx=0;exitDy=0;exitPerimeter=0;" parent="1" source="Zvi5rRcZ6YTApQut40Sa-53" target="Zvi5rRcZ6YTApQut40Sa-11" edge="1">
          <mxGeometry width="50" height="50" relative="1" as="geometry">
            <mxPoint x="240" y="680" as="sourcePoint" />
            <mxPoint x="290" y="630" as="targetPoint" />
          </mxGeometry>
        </mxCell>
        <mxCell id="DPjsktOoGeMWFbLANR4H-7" value="GoDaddy" style="aspect=fixed;html=1;points=[];align=center;image;fontSize=12;image=img/lib/azure2/networking/DNS_Zones.svg;" vertex="1" parent="1">
          <mxGeometry x="635" y="-13" width="64" height="64" as="geometry" />
        </mxCell>
        <mxCell id="DPjsktOoGeMWFbLANR4H-8" value="" style="endArrow=classic;startArrow=classic;html=1;rounded=0;" edge="1" parent="1" target="DPjsktOoGeMWFbLANR4H-7">
          <mxGeometry width="50" height="50" relative="1" as="geometry">
            <mxPoint x="521.5" y="20" as="sourcePoint" />
            <mxPoint x="571.5" y="-30" as="targetPoint" />
          </mxGeometry>
        </mxCell>
      </root>
    </mxGraphModel>
  </diagram>
</mxfile>
